<svg xmlns="http://www.w3.org/2000/svg" viewBox="0 0 1280 800"><defs><style>.cls-1{isolation:isolate;}.cls-2{fill:#d7dae5;}.cls-3{fill:#c98961;}.cls-4{fill:#53687e;}.cls-5{fill:#a37b60;opacity:0.3;mix-blend-mode:screen;}</style></defs><title>board-spong-less@1280x800</title><g class="cls-1"><g id="Warstwa_1" data-name="Warstwa 1"><rect class="cls-2" width="1280" height="800"/><path class="cls-3" d="M46.16,739.06c0,15,12.71,27.13,28.4,27.13H1208.78c15.68,0,28.4-12.15,28.4-27.13V27.13c0-15-12.72-27.13-28.4-27.13H74.56c-15.69,0-28.4,12.15-28.4,27.13Z"/><path class="cls-4" d="M78.34,716.16c0,13.91,12.07,25.19,27,25.19h1077c14.89,0,27-11.28,27-25.19V55c0-13.91-12.07-25.19-27-25.19h-1077c-14.89,0-27,11.28-27,25.19Z"/><path class="cls-3" d="M0,776.36C0,789.42,12.71,800,28.4,800H1251.6c15.69,0,28.4-10.58,28.4-23.64v-5.08c0-13.06-12.71-23.65-28.4-23.65H28.4C12.71,747.63,0,758.21,0,771.28Z"/><path class="cls-5" d="M1280,771.28c0-13.06-11-23.65-26.73-23.65H30.08C14.39,747.63,0,758.21,0,771.28Z"/></g></g></svg>